HIERARCHY
ROOT Hips
{
 OFFSET 0.000000 0.000000 0.000000
 CHANNELS 6 Xposition Yposition Zposition Yrotation Xrotation Zrotation
 JOINT Chest
 {
  OFFSET 0.000000 9.588913 -0.003946
  CHANNELS 3 Yrotation Xrotation Zrotation
  JOINT Chest2
  {
   OFFSET 0.000000 9.541882 0.008053
   CHANNELS 3 Yrotation Xrotation Zrotation
   JOINT Chest3
   {
    OFFSET 0.000000 9.501360 0.000000
    CHANNELS 3 Yrotation Xrotation Zrotation
    JOINT Chest4
    {
     OFFSET 0.000000 9.491660 0.000000
     CHANNELS 3 Yrotation Xrotation Zrotation
     JOINT Neck
     {
      OFFSET 0.000000 14.331917 0.000000
      CHANNELS 3 Yrotation Xrotation Zrotation
      JOINT Head
      {
       OFFSET 0.000000 8.884799 0.017034
       CHANNELS 3 Yrotation Xrotation Zrotation
       End Site
       {
        OFFSET 0.000000 16.896195 0.008993
       }
      }
     }
     JOINT RightCollar
     {
      OFFSET -2.923010 9.499495 0.000000
      CHANNELS 3 Yrotation Xrotation Zrotation
      JOINT RightShoulder
      {
       OFFSET -13.795216 0.000000 0.000000
       CHANNELS 3 Yrotation Xrotation Zrotation
       JOINT RightElbow
       {
        OFFSET -30.272209 0.000000 0.000000
        CHANNELS 3 Yrotation Xrotation Zrotation
        JOINT RightWrist
        {
         OFFSET -24.478199 0.000000 0.000000
         CHANNELS 3 Yrotation Xrotation Zrotation
         End Site
         {
          OFFSET -18.090752 0.000000 0.000000
         }
        }
       }
      }
     }
     JOINT LeftCollar
     {
      OFFSET 2.923010 9.499495 0.000000
      CHANNELS 3 Yrotation Xrotation Zrotation
      JOINT LeftShoulder
      {
       OFFSET 13.795216 0.000000 0.000000
       CHANNELS 3 Yrotation Xrotation Zrotation
       JOINT LeftElbow
       {
        OFFSET 30.272209 0.000000 0.000000
        CHANNELS 3 Yrotation Xrotation Zrotation
        JOINT LeftWrist
        {
         OFFSET 24.478199 0.000000 0.000000
         CHANNELS 3 Yrotation Xrotation Zrotation
         End Site
         {
          OFFSET 18.090752 0.000000 0.000000
         }
        }
       }
      }
     }
    }
   }
  }
 }
 JOINT RightHip
 {
  OFFSET -7.826875 0.019532 0.001973
  CHANNELS 3 Yrotation Xrotation Zrotation
  JOINT RightKnee
  {
   OFFSET 0.000000 -40.546152 -0.001885
   CHANNELS 3 Yrotation Xrotation Zrotation
   JOINT RightAnkle
   {
    OFFSET 0.000000 -39.417092 -0.003189
    CHANNELS 3 Yrotation Xrotation Zrotation
    JOINT RightToe
    {
     OFFSET 0.000000 -7.579396 17.243563
     CHANNELS 3 Yrotation Xrotation Zrotation
     End Site
     {
      OFFSET 0.000000 -1.500329 6.694466
     }
    }
   }
  }
 }
 JOINT LeftHip
 {
  OFFSET 7.826875 0.019532 0.001973
  CHANNELS 3 Yrotation Xrotation Zrotation
  JOINT LeftKnee
  {
   OFFSET 0.000000 -40.546152 -0.001885
   CHANNELS 3 Yrotation Xrotation Zrotation
   JOINT LeftAnkle
   {
    OFFSET 0.000000 -39.417092 -0.003189
    CHANNELS 3 Yrotation Xrotation Zrotation
    JOINT LeftToe
    {
     OFFSET 0.000000 -7.579396 17.243563
     CHANNELS 3 Yrotation Xrotation Zrotation
     End Site
     {
      OFFSET 0.000000 -1.500329 6.694466
     }
    }
   }
  }
 }
}
MOTION
Frames: 17
Frame Time: 0.008333
0.000000 87.345680 0.000000 0.000000 -5.767889 0.000000 0.000000 11.653876 0.000000 0.000000 -5.885988 0.000000 0.000000 -0.000000 0.000000 0.000000 -0.000000 0.000000 0.000000 12.528808 0.000000 0.000000 0.711711 0.000000 0.000000 -0.000000 0.000000 0.000000 -0.000000 0.000000 2.309063 -0.000000 0.000000 -2.309063 -0.000000 -0.000000 0.000000 -0.000000 0.000000 0.000000 0.000000 0.000000 -2.309063 0.000000 0.000000 2.309063 -0.000000 0.000000 0.000000 8.520374 0.000000 0.000000 1.905768 0.000000 -0.000000 -4.658254 0.000000 0.000000 -0.000000 0.000000 0.000000 8.520374 0.000000 0.000000 1.905768 0.000000 -0.000000 -4.658254 0.000000 0.000000 -0.000000 0.000000
2.261430 88.405281 25.913787 -57.276432 -8.183926 0.601787 4.369560 2.959023 0.931318 2.500501 1.708887 0.450670 3.128067 2.132904 0.575027 2.500501 1.708887 0.450670 8.285669 12.672235 -2.102668 9.675573 -12.178197 -4.307111 -4.986090 3.212550 -0.629098 -2.210557 -3.101806 88.733295 0.053650 -14.347051 -0.242598 -0.727937 -22.806364 1.370929 -8.196360 2.685671 0.381245 3.007746 -3.806819 -91.151352 0.281126 1.968023 1.723187 3.020393 4.427161 -3.418493 -8.913835 13.108055 -9.308812 25.179476 0.900320 -3.420489 15.354999 -8.947035 2.637585 -0.058622 0.182777 -0.005860 16.058806 13.082746 8.807389 13.638327 2.074796 0.252001 10.457491 -4.065793 -6.585643 -0.009307 -0.125834 -0.017334
2.256872 88.404591 25.911239 -57.275829 -8.192199 0.594789 4.371116 2.962890 0.933955 2.501833 1.710336 0.452163 3.129742 2.134703 0.576909 2.501833 1.710336 0.452163 8.269922 12.662471 -2.103168 9.657407 -12.189474 -4.303611 -4.997690 3.219141 -0.623913 -2.228389 -3.092807 88.733657 0.062850 -14.402213 -0.227422 -0.723492 -22.826894 1.385863 -8.198461 2.689124 0.383883 2.993831 -3.815139 -91.150657 0.276467 1.959325 1.714731 3.007680 4.424859 -3.416377 -8.903239 13.106983 -9.300135 25.178091 0.924137 -3.409205 15.360030 -8.958008 2.623443 -0.059380 0.182981 -0.008082 16.064554 13.085786 8.820728 13.631561 2.080892 0.255515 10.461414 -4.072562 -6.588480 -0.007394 -0.126956 -0.017565
2.252146 88.403727 25.908307 -57.278707 -8.199000 0.589030 4.374027 2.965443 0.936272 2.503589 1.711468 0.453947 3.131948 2.136103 0.579155 2.503589 1.711468 0.453947 8.253297 12.653136 -2.103231 9.638068 -12.200336 -4.299372 -5.006621 3.227025 -0.620278 -2.243176 -3.085973 88.733339 0.069242 -14.459648 -0.210736 -0.715791 -22.848609 1.398917 -8.197806 2.692890 0.385654 2.976593 -3.820111 -91.147942 0.268868 1.946381 1.701327 2.997145 4.421749 -3.415344 -8.886413 13.103704 -9.290055 25.175863 0.951131 -3.396389 15.355229 -8.970244 2.608200 -0.061813 0.184434 -0.010086 16.072669 13.090720 8.834615 13.623922 2.082462 0.255924 10.464905 -4.077463 -6.590855 -0.006486 -0.127951 -0.017190
2.247560 88.402679 25.904999 -57.285655 -8.203102 0.584681 4.377689 2.965428 0.939266 2.505387 1.711782 0.455339 3.134202 2.136484 0.580906 2.505387 1.711782 0.455339 8.237342 12.645925 -2.102553 9.619239 -12.208887 -4.294436 -5.014224 3.236296 -0.618378 -2.249563 -3.078408 88.732875 0.074458 -14.516981 -0.193426 -0.705053 -22.874430 1.407363 -8.194955 2.698938 0.384251 2.960932 -3.821747 -91.141719 0.255198 1.933502 1.685979 2.993557 4.419725 -3.418933 -8.864369 13.096293 -9.279517 25.175316 0.979744 -3.384354 15.349186 -8.983152 2.593456 -0.063579 0.186596 -0.011671 16.084173 13.096664 8.847374 13.619806 2.077984 0.254567 10.465002 -4.079699 -6.592206 -0.006391 -0.128564 -0.016765
2.242943 88.401519 25.901642 -57.295912 -8.206715 0.581888 4.382341 2.963732 0.942416 2.507349 1.711972 0.456057 3.136659 2.136715 0.581813 2.507349 1.711972 0.456057 8.222165 12.641230 -2.100686 9.600913 -12.214710 -4.288321 -5.024023 3.244437 -0.619314 -2.245361 -3.069688 88.736785 0.077811 -14.572582 -0.180195 -0.692645 -22.902159 1.413749 -8.193591 2.705895 0.380214 2.953548 -3.820312 -91.132304 0.238778 1.926841 1.670980 2.990070 4.417597 -3.426216 -8.838988 13.087980 -9.268923 25.175068 1.008828 -3.374505 15.342501 -8.996424 2.580228 -0.065890 0.189226 -0.013196 16.098466 13.105358 8.857920 13.619062 2.067960 0.253794 10.462910 -4.079661 -6.592559 -0.006695 -0.128885 -0.017072
2.237942 88.400299 25.898103 -57.310514 -8.211246 0.578429 4.387904 2.962343 0.945357 2.510203 1.712466 0.456505 3.140230 2.137324 0.582391 2.510203 1.712466 0.456505 8.206809 12.638139 -2.097214 9.581875 -12.218849 -4.280321 -5.035520 3.248992 -0.620944 -2.230250 -3.059378 88.744260 0.080575 -14.628418 -0.172367 -0.682798 -22.928897 1.419393 -8.189585 2.712309 0.378342 2.950880 -3.817799 -91.123597 0.222176 1.925994 1.655367 2.987762 4.414998 -3.431221 -8.809234 13.080374 -9.256973 25.173496 1.038388 -3.363979 15.336866 -9.009750 2.564300 -0.067711 0.192163 -0.012942 16.117042 13.118227 8.870898 13.621949 2.052434 0.250243 10.458738 -4.078514 -6.591696 -0.007801 -0.128693 -0.017223
2.232756 88.399019 25.894355 -57.327332 -8.215416 0.574326 4.392659 2.962134 0.947416 2.513499 1.712885 0.456658 3.144352 2.137843 0.582600 2.513499 1.712885 0.456658 8.191449 12.636560 -2.092688 9.562487 -12.221380 -4.271104 -5.048266 3.249928 -0.620506 -2.203224 -3.047052 88.749764 0.084776 -14.682574 -0.165770 -0.676182 -22.954670 1.422121 -8.177600 2.717837 0.381170 2.945790 -3.815577 -91.119355 0.205807 1.923536 1.641018 2.990171 4.414389 -3.432750 -8.780197 13.072937 -9.246430 25.172700 1.064679 -3.351816 15.336817 -9.022061 2.545887 -0.068210 0.195607 -0.011277 16.137297 13.134148 8.885194 13.629260 2.030781 0.244357 10.452107 -4.075707 -6.590324 -0.009109 -0.128236 -0.016692
2.227504 88.397711 25.890602 -57.342965 -8.218863 0.570577 4.396818 2.962256 0.949057 2.516750 1.713107 0.456223 3.148415 2.138119 0.582073 2.516750 1.713107 0.456223 8.175736 12.636789 -2.087922 9.542551 -12.221978 -4.261484 -5.062625 3.250861 -0.618794 -2.170915 -3.035166 88.753188 0.088993 -14.729074 -0.159107 -0.665275 -22.978744 1.420860 -8.163584 2.722393 0.388027 2.942846 -3.812463 -91.119779 0.191012 1.917672 1.629089 2.992597 4.414210 -3.431086 -8.758060 13.066491 -9.238895 25.174642 1.085532 -3.339045 15.339085 -9.032570 2.527141 -0.067595 0.199525 -0.009570 16.154029 13.152191 8.896960 13.639389 2.003814 0.239324 10.447037 -4.070617 -6.589186 -0.009681 -0.127970 -0.015923
2.221848 88.396430 25.886692 -57.356623 -8.222138 0.565463 4.401471 2.961685 0.951263 2.519977 1.713162 0.455515 3.152445 2.138188 0.581203 2.519977 1.713162 0.455515 8.159372 12.638248 -2.082461 9.521609 -12.221294 -4.250882 -5.077617 3.253661 -0.615872 -2.140428 -3.023458 88.756179 0.093871 -14.766979 -0.154261 -0.647213 -23.000575 1.416685 -8.153283 2.726885 0.397511 2.947379 -3.807713 -91.123568 0.179405 1.910088 1.620619 2.991503 4.409714 -3.428038 -8.743519 13.060729 -9.231307 25.179212 1.104043 -3.326130 15.342953 -9.041848 2.506894 -0.065546 0.202945 -0.007344 16.164658 13.172910 8.908939 13.652125 1.971961 0.232320 10.446462 -4.063856 -6.587458 -0.009925 -0.127638 -0.014682
2.215964 88.395173 25.882544 -57.368173 -8.223365 0.559374 4.406267 2.959477 0.952868 2.522957 1.712622 0.455050 3.156167 2.137512 0.580632 2.522957 1.712622 0.455050 8.143553 12.640850 -2.076681 9.501189 -12.219358 -4.240048 -5.093719 3.256355 -0.612879 -2.115001 -3.010444 88.758592 0.101034 -14.792242 -0.150715 -0.628646 -23.025916 1.412794 -8.145772 2.731903 0.406788 2.957912 -3.801307 -91.129094 0.171880 1.899613 1.615578 2.987916 4.400412 -3.424692 -8.735435 13.054329 -9.222481 25.185265 1.120380 -3.315370 15.347007 -9.050091 2.487088 -0.064772 0.205760 -0.005267 16.169882 13.195207 8.921803 13.665907 1.934343 0.221113 10.448705 -4.055128 -6.584422 -0.010747 -0.127446 -0.012943
2.210018 88.393953 25.878323 -57.376752 -8.221639 0.553750 4.409671 2.955681 0.953620 2.525360 1.711059 0.454603 3.159166 2.135558 0.580073 2.525360 1.711059 0.454603 8.129092 12.645024 -2.070895 9.482320 -12.215662 -4.229544 -5.110201 3.258777 -0.611000 -2.095453 -2.997917 88.761202 0.108995 -14.807023 -0.145910 -0.612529 -23.055454 1.409867 -8.138436 2.738962 0.415334 2.970834 -3.794138 -91.136755 0.168973 1.883343 1.612223 2.982797 4.389771 -3.419965 -8.731952 13.048018 -9.213743 25.192994 1.132198 -3.307408 15.348322 -9.056521 2.468942 -0.064687 0.208289 -0.003701 16.169965 13.218686 8.933279 13.681294 1.889954 0.207825 10.449235 -4.043164 -6.580323 -0.012388 -0.128070 -0.011511
2.203635 88.392845 25.874198 -57.381290 -8.219198 0.548193 4.410607 2.951212 0.954256 2.526768 1.708422 0.454000 3.160920 2.132265 0.579308 2.526768 1.708422 0.454000 8.116261 12.650831 -2.064928 9.465272 -12.210133 -4.219246 -5.124425 3.263452 -0.607691 -2.080634 -2.985256 88.762482 0.119706 -14.825827 -0.139223 -0.598896 -23.081048 1.407921 -8.130577 2.749541 0.423743 2.983291 -3.785562 -91.147210 0.169374 1.860591 1.610273 2.976408 4.378497 -3.413826 -8.730629 13.044981 -9.206318 25.201677 1.137396 -3.300982 15.350317 -9.060548 2.452747 -0.062307 0.210382 -0.002919 16.164569 13.244760 8.943486 13.703764 1.839468 0.193656 10.445297 -4.027695 -6.575857 -0.014102 -0.129408 -0.010014
2.196605 88.391898 25.870226 -57.382143 -8.217636 0.542430 4.409768 2.946959 0.955276 2.527203 1.705169 0.453449 3.161456 2.128202 0.578598 2.527203 1.705169 0.453449 8.105222 12.657709 -2.059452 9.450444 -12.203354 -4.209963 -5.137116 3.271771 -0.602084 -2.073411 -2.972736 88.761070 0.134813 -14.851162 -0.131819 -0.588933 -23.099950 1.409200 -8.123141 2.761423 0.430280 2.996368 -3.776164 -91.158462 0.172843 1.835168 1.608549 2.969409 4.365336 -3.405685 -8.729505 13.047097 -9.199629 25.207970 1.136040 -3.296185 15.354283 -9.062082 2.439094 -0.057731 0.211754 -0.003045 16.158921 13.271375 8.954320 13.736338 1.788198 0.178398 10.433603 -4.010952 -6.571308 -0.015215 -0.131115 -0.008000
2.189133 88.391115 25.866431 -57.381813 -8.216920 0.537543 4.408810 2.942415 0.955539 2.527511 1.701616 0.452772 3.161832 2.123765 0.577729 2.527511 1.701616 0.452772 8.095322 12.665294 -2.053484 9.436807 -12.195773 -4.200425 -5.151595 3.284064 -0.593065 -2.075450 -2.963181 88.758572 0.151309 -14.876778 -0.125458 -0.580057 -23.112313 1.413913 -8.117605 2.774453 0.436410 3.009405 -3.768129 -91.170597 0.180799 1.810672 1.606852 2.962219 4.350096 -3.395731 -8.726674 13.052725 -9.192234 25.211196 1.132634 -3.294219 15.354779 -9.062710 2.428490 -0.054141 0.212589 -0.004150 16.161984 13.296795 8.967940 13.774863 1.738832 0.160612 10.409446 -3.994103 -6.566056 -0.016108 -0.133653 -0.005839
2.181345 88.390500 25.862643 -57.380531 -8.217311 0.532997 4.408083 2.936502 0.955210 2.527862 1.697603 0.452291 3.162262 2.118753 0.577101 2.527862 1.697603 0.452291 8.085350 12.674073 -2.047245 9.422968 -12.186915 -4.190541 -5.168159 3.300971 -0.581145 -2.085349 -2.956347 88.754370 0.167497 -14.902494 -0.119784 -0.573509 -23.117746 1.420513 -8.113905 2.791389 0.442399 3.017868 -3.760977 -91.185371 0.190879 1.787939 1.608151 2.956334 4.335267 -3.386781 -8.722852 13.060085 -9.183916 25.212590 1.129449 -3.295887 15.357586 -9.063610 2.421139 -0.052096 0.212738 -0.005927 16.174733 13.321970 8.985450 13.809103 1.689628 0.140221 10.379048 -3.976417 -6.560107 -0.016835 -0.136976 -0.003831
2.173519 88.390034 25.858575 -57.375802 -8.218144 0.527661 4.406832 2.929486 0.956005 2.527349 1.693551 0.452085 3.161614 2.113690 0.576812 2.527349 1.693551 0.452085 8.074425 12.682522 -2.041598 9.408182 -12.178441 -4.181070 -5.186372 3.321230 -0.569272 -2.101495 -2.953320 88.748369 0.181130 -14.929535 -0.114869 -0.573507 -23.118402 1.429536 -8.110705 2.810225 0.446614 3.020540 -3.754113 -91.201477 0.201312 1.765142 1.615077 2.951683 4.326674 -3.383462 -8.721908 13.067707 -9.174998 25.213523 1.126368 -3.298494 15.363055 -9.063894 2.414740 -0.050059 0.211926 -0.007605 16.187543 13.344746 9.003352 13.829351 1.643201 0.121858 10.359042 -3.958959 -6.554808 -0.016946 -0.140315 -0.002685
